<svg xmlns="http://www.w3.org/2000/svg" viewBox="0 0 360 260" role="img" aria-labelledby="figure-12-2-title figure-12-2-desc"><title id="figure-12-2-title">DBSCAN: 이웃이 충분한가?</title><desc id="figure-12-2-desc">점 (2,2)을 중심으로 반경 1.5 안에 자기 자신을 포함한 샘플 5개가 있다. min_samples=4이므로 이 점은 핵심점이다.</desc><rect width="360" height="260" fill="#fff"/><g fill="#13203a" font-family="Arial, Apple SD Gothic Neo, Malgun Gothic, sans-serif"><line x1="74" y1="33" x2="74" y2="207" stroke="#64748b" stroke-width="2"/><line x1="74" y1="207" x2="306" y2="207" stroke="#64748b" stroke-width="2"/><text x="190" y="248" text-anchor="middle" font-size="16"><tspan x="190" dy="0">feature 1</tspan></text><text x="12" y="22" text-anchor="start" font-size="16"><tspan x="12" dy="0">feature 2</tspan></text><line x1="74" y1="207" x2="74" y2="212" stroke="#64748b" stroke-width="2"/><text x="74" y="230" text-anchor="middle" font-size="16"><tspan x="74" dy="0">0</tspan></text><line x1="190" y1="207" x2="190" y2="212" stroke="#64748b" stroke-width="2"/><text x="190" y="230" text-anchor="middle" font-size="16"><tspan x="190" dy="0">4</tspan></text><line x1="306" y1="207" x2="306" y2="212" stroke="#64748b" stroke-width="2"/><text x="306" y="230" text-anchor="middle" font-size="16"><tspan x="306" dy="0">8</tspan></text><line x1="69" y1="207" x2="74" y2="207" stroke="#64748b" stroke-width="2"/><text x="65" y="212" text-anchor="end" font-size="16"><tspan x="65" dy="0">0</tspan></text><line x1="69" y1="120" x2="74" y2="120" stroke="#64748b" stroke-width="2"/><text x="65" y="125" text-anchor="end" font-size="16"><tspan x="65" dy="0">3</tspan></text><line x1="69" y1="33" x2="74" y2="33" stroke="#64748b" stroke-width="2"/><text x="65" y="38" text-anchor="end" font-size="16"><tspan x="65" dy="0">6</tspan></text><circle cx="103" cy="149" r="5" fill="#1768df"/><circle cx="132" cy="149" r="5" fill="#1768df"/><circle cx="132" cy="120" r="5" fill="#1768df"/><circle cx="146.5" cy="131.6" r="5" fill="#1768df"/><circle cx="161" cy="149" r="5" fill="#1768df"/><circle cx="277" cy="62" r="5" fill="#b44a2d"/><ellipse cx="132" cy="149" rx="43.5" ry="43.5" fill="none" stroke="#1768df" stroke-dasharray="5 4"/></g></svg>