<svg xmlns="http://www.w3.org/2000/svg" viewBox="0 0 360 255" role="img" aria-labelledby="figure-25-2-title figure-25-2-desc"><title id="figure-25-2-title">GAN: 두 학습 단계의 대상을 구분</title><desc id="figure-25-2-desc">판별자 D의 학습 단계에서는 진짜와 가짜를 구분하도록 D를 갱신한다. 생성자 G의 학습 단계에서는 D를 통해 계산한 기울기로 G를 갱신한다. 가짜 샘플을 detach하는 것은 D 학습 단계다.</desc><rect width="360" height="255" fill="#fff"/><g fill="#13203a" font-family="Arial, Apple SD Gothic Neo, Malgun Gothic, sans-serif"><rect x="28" y="14" width="304" height="39" rx="5" fill="#eaf3ff" stroke="#1768df"/><text x="180" y="39" text-anchor="middle" font-size="16"><tspan x="180" dy="-9">D 단계: 진짜 x / 가짜 G(z).deta</tspan><tspan x="180" dy="18">ch()</tspan></text><rect x="28" y="70" width="304" height="39" rx="5" fill="#eaf3ff" stroke="#1768df"/><text x="180" y="95" text-anchor="middle" font-size="16"><tspan x="180" dy="0">D의 구분 손실로 D만 갱신</tspan></text><line x1="180" y1="53" x2="180" y2="68" stroke="#64748b" stroke-width="2"/><path d="M176.64402122977057,61.85692206676739 L180,68 L183.35597877022943,61.85692206676739" fill="none" stroke="#64748b" stroke-width="3"/><rect x="28" y="126" width="304" height="39" rx="5" fill="#eaf3ff" stroke="#1768df"/><text x="180" y="151" text-anchor="middle" font-size="16"><tspan x="180" dy="0">G 단계: D(G(z))로 손실 계산</tspan></text><line x1="180" y1="109" x2="180" y2="124" stroke="#64748b" stroke-width="2"/><path d="M176.64402122977057,117.8569220667674 L180,124 L183.35597877022943,117.8569220667674" fill="none" stroke="#64748b" stroke-width="3"/><rect x="28" y="182" width="304" height="39" rx="5" fill="#e6f7f1" stroke="#168765"/><text x="180" y="207" text-anchor="middle" font-size="16"><tspan x="180" dy="0">D를 통해 계산한 기울기로 G 갱신</tspan></text><line x1="180" y1="165" x2="180" y2="180" stroke="#64748b" stroke-width="2"/><path d="M176.64402122977057,173.8569220667674 L180,180 L183.35597877022943,173.8569220667674" fill="none" stroke="#64748b" stroke-width="3"/></g></svg>